<svg width="257" height="257" viewBox="0 0 257 257" fill="none" xmlns="http://www.w3.org/2000/svg">
<mask id="path-1-outside-1_23_132" maskUnits="userSpaceOnUse" x="56" y="31" width="145" height="226" fill="black">
<rect fill="white" x="56" y="31" width="145" height="226"/>
<path d="M89.26 32H167.66L199.02 63.36V118.72L173.74 144L199.02 169.28V228.48L171.5 256H158.06H98.86H85.42L57.9 228.48V169.28L83.18 144L57.9 118.72V63.36L89.26 32ZM109.42 76.8V121.6H147.5V76.8H109.42ZM109.42 166.4V215.04H147.5V166.4H109.42Z"/>
</mask>
<path d="M89.26 32H167.66L199.02 63.36V118.72L173.74 144L199.02 169.28V228.48L171.5 256H158.06H98.86H85.42L57.9 228.48V169.28L83.18 144L57.9 118.72V63.36L89.26 32ZM109.42 76.8V121.6H147.5V76.8H109.42ZM109.42 166.4V215.04H147.5V166.4H109.42Z" fill="white"/>
<path d="M89.26 32V31H88.8458L88.5529 31.2929L89.26 32ZM167.66 32L168.367 31.2929L168.074 31H167.66V32ZM199.02 63.36H200.02V62.9458L199.727 62.6529L199.02 63.36ZM199.02 118.72L199.727 119.427L200.02 119.134V118.72H199.02ZM173.74 144L173.033 143.293L172.326 144L173.033 144.707L173.74 144ZM199.02 169.28H200.02V168.866L199.727 168.573L199.02 169.28ZM199.02 228.48L199.727 229.187L200.02 228.894V228.48H199.02ZM171.5 256V257H171.914L172.207 256.707L171.5 256ZM85.42 256L84.7129 256.707L85.0058 257H85.42V256ZM57.9 228.48H56.9V228.894L57.1929 229.187L57.9 228.48ZM57.9 169.28L57.1929 168.573L56.9 168.866V169.28H57.9ZM83.18 144L83.8871 144.707L84.5942 144L83.8871 143.293L83.18 144ZM57.9 118.72H56.9V119.134L57.1929 119.427L57.9 118.72ZM57.9 63.36L57.1929 62.6529L56.9 62.9458V63.36H57.9ZM109.42 76.8V75.8H108.42V76.8H109.42ZM109.42 121.6H108.42V122.6H109.42V121.6ZM147.5 121.6V122.6H148.5V121.6H147.5ZM147.5 76.8H148.5V75.8H147.5V76.8ZM109.42 166.4V165.4H108.42V166.4H109.42ZM109.42 215.04H108.42V216.04H109.42V215.04ZM147.5 215.04V216.04H148.5V215.04H147.5ZM147.5 166.4H148.5V165.4H147.5V166.4ZM89.26 32V33H167.66V32V31H89.26V32ZM167.66 32L166.953 32.7071L198.313 64.0671L199.02 63.36L199.727 62.6529L168.367 31.2929L167.66 32ZM199.02 63.36H198.02V118.72H199.02H200.02V63.36H199.02ZM199.02 118.72L198.313 118.013L173.033 143.293L173.74 144L174.447 144.707L199.727 119.427L199.02 118.72ZM173.74 144L173.033 144.707L198.313 169.987L199.02 169.28L199.727 168.573L174.447 143.293L173.74 144ZM199.02 169.28H198.02V228.48H199.02H200.02V169.28H199.02ZM199.02 228.48L198.313 227.773L170.793 255.293L171.5 256L172.207 256.707L199.727 229.187L199.02 228.48ZM171.5 256V255H158.06V256V257H171.5V256ZM158.06 256V255H98.86V256V257H158.06V256ZM98.86 256V255H85.42V256V257H98.86V256ZM85.42 256L86.1271 255.293L58.6071 227.773L57.9 228.48L57.1929 229.187L84.7129 256.707L85.42 256ZM57.9 228.48H58.9V169.28H57.9H56.9V228.48H57.9ZM57.9 169.28L58.6071 169.987L83.8871 144.707L83.18 144L82.4729 143.293L57.1929 168.573L57.9 169.28ZM83.18 144L83.8871 143.293L58.6071 118.013L57.9 118.72L57.1929 119.427L82.4729 144.707L83.18 144ZM57.9 118.72H58.9V63.36H57.9H56.9V118.72H57.9ZM57.9 63.36L58.6071 64.0671L89.9671 32.7071L89.26 32L88.5529 31.2929L57.1929 62.6529L57.9 63.36ZM109.42 76.8H108.42V121.6H109.42H110.42V76.8H109.42ZM109.42 121.6V122.6H147.5V121.6V120.6H109.42V121.6ZM147.5 121.6H148.5V76.8H147.5H146.5V121.6H147.5ZM147.5 76.8V75.8H109.42V76.8V77.8H147.5V76.8ZM109.42 166.4H108.42V215.04H109.42H110.42V166.4H109.42ZM109.42 215.04V216.04H147.5V215.04V214.04H109.42V215.04ZM147.5 215.04H148.5V166.4H147.5H146.5V215.04H147.5ZM147.5 166.4V165.4H109.42V166.4V167.4H147.5V166.4Z" fill="white" mask="url(#path-1-outside-1_23_132)"/>
<line x1="10" y1="143" x2="247" y2="143" stroke="white" stroke-width="20" stroke-linecap="square"/>
</svg>
