<svg width="360" height="356" viewBox="0 0 360 356" fill="none" xmlns="http://www.w3.org/2000/svg">
<path d="M180 0.80542C179.923 0.80542 180 0.80542 180 0.882764C180 0.882764 180.077 0.80542 180 0.80542ZM180 0.882764C179.691 1.07612 176.752 2.18987 173.658 5.03612C170.1 8.21495 166.078 12.9329 162.443 18.0376C158.808 23.1423 155.482 28.6724 153.239 33.4445C151.305 37.4586 150.377 40.7148 150.068 42.2694L159.581 61.1722H200.419L209.932 42.2694C209.623 40.7148 208.695 37.4586 206.761 33.4445C204.518 28.6724 201.192 23.1423 197.557 18.0376C193.922 12.9329 189.9 8.21495 186.342 5.03612C183.248 2.18987 180.309 1.07612 180 0.882764ZM13.1076 3.39644L0.392332 9.04253L51.4083 123.859L103.352 132.522C104.899 128.191 106.833 123.782 108.921 119.296L61.1226 111.33L13.1076 3.39644ZM346.908 3.39644L298.877 111.33L251.079 119.296C253.167 123.782 255.101 128.191 256.648 132.522L308.623 123.859L359.592 9.04253L346.908 3.39644ZM111.628 3.6362L84.7898 70.7242L121.76 95.3968C124.235 91.2203 126.787 87.3531 129.34 83.7179L101.96 65.4648L124.622 8.80277L111.628 3.6362ZM248.372 3.6362L235.378 8.80277L258.04 65.4648L230.66 83.7179C233.212 87.3531 235.765 91.2203 238.24 95.3968L275.21 70.7242L248.372 3.6362ZM155.25 75.0554C156.565 75.0554 155.482 74.9781 153.858 76.2929C152.234 77.5304 150.068 79.7734 147.593 82.6351C142.798 88.3585 137.152 96.6343 131.892 105.606C123.848 119.373 116.965 135.461 114.103 146.289C116.965 143.582 120.136 141.03 123.616 138.709C138.466 128.809 158.266 123.009 180 123.009C201.734 123.009 221.534 128.809 236.384 138.709C239.864 141.03 243.035 143.582 245.897 146.289C243.035 135.461 236.152 119.373 228.108 105.606C222.848 96.6343 217.202 88.3585 212.407 82.6351C209.932 79.7734 207.766 77.5304 206.142 76.2929C204.518 74.9781 203.435 75.0554 204.75 75.0554H155.25ZM164.995 138.013C151.847 139.947 140.168 144.355 131.351 150.234C119.285 158.277 112.711 168.641 112.711 179.469C112.711 190.298 119.285 200.662 131.351 208.705C140.168 214.584 151.847 218.992 164.995 220.926C148.057 214.738 135.914 198.496 135.914 179.469C135.914 160.443 148.057 144.201 164.995 138.013ZM195.005 138.013C211.943 144.201 224.086 160.443 224.086 179.469C224.086 198.496 211.943 214.738 195.005 220.926C208.153 218.992 219.832 214.584 228.649 208.705C240.715 200.662 247.289 190.298 247.289 179.469C247.289 168.641 240.715 158.277 228.649 150.234C219.832 144.355 208.153 139.947 195.005 138.013ZM182.862 149.46C192.452 153.095 199.336 162.454 199.336 173.282C199.336 187.281 187.812 198.805 173.812 198.805C162.984 198.805 153.626 191.922 149.991 182.331C151.383 197.723 164.299 209.634 180 209.634C196.706 209.634 210.164 196.176 210.164 179.469C210.164 163.769 198.253 150.852 182.862 149.46ZM98.8664 177.149L63.443 185.966L0.253113 350.245L13.2469 355.194L73.807 197.723L100.491 191.071C99.4078 187.359 98.7891 183.491 98.7891 179.469C98.7891 178.696 98.7891 177.923 98.8664 177.149ZM261.134 177.149C261.211 177.923 261.211 178.696 261.211 179.469C261.211 183.491 260.592 187.359 259.509 191.071L286.193 197.723L346.753 355.194L359.747 350.245L296.557 185.966L261.134 177.149ZM124.003 220.462C128.489 236.627 134.058 253.023 140.091 268.183C147.67 287.209 156.101 304.302 163.835 316.291C167.702 322.246 171.415 326.964 174.509 329.826C177.525 332.765 179.768 333.384 180 333.384C180.232 333.384 182.475 332.765 185.491 329.826C188.585 326.964 192.298 322.246 196.165 316.291C203.899 304.302 212.33 287.209 219.909 268.183C225.942 253.023 231.511 236.627 235.997 220.462C221.224 230.207 201.579 235.93 180 235.93C158.421 235.93 138.776 230.207 124.003 220.462ZM112.324 230.826L87.1875 249.62L61.8961 351.018L75.3539 354.421L99.5625 257.819L116.733 244.902C115.186 240.262 113.716 235.544 112.324 230.826ZM247.676 230.826C246.284 235.544 244.814 240.262 243.267 244.902L260.437 257.819L284.646 354.421L298.104 351.018L272.812 249.62L247.676 230.826Z" fill="white" fill-opacity="0.12"/>
</svg>
